{
  "accessors": [
    {
      "bufferView": 2,
      "componentType": 5126,
      "count": 65532,
      "max": [
        62.59912872314453,
        21.409425735473633,
        75.14811706542969
      ],
      "min": [
        -55.54348373413086,
        -14.117035865783691,
        -50.06643295288086
      ],
      "type": "VEC3"
    },
    {
      "bufferView": 2,
      "byteOffset": 786384,
      "componentType": 5126,
      "count": 65532,
      "max": [
        1.0,
        1.0,
        1.0
      ],
      "min": [
        -1.0,
        -1.0,
        -1.0
      ],
      "type": "VEC3"
    },
    {
      "bufferView": 1,
      "componentType": 5126,
      "count": 65532,
      "max": [
        3.4731905460357666,
        3.34136962890625
      ],
      "min": [
        -4.214266300201416,
        -5.719675540924072
      ],
      "type": "VEC2"
    },
    {
      "bufferView": 0,
      "componentType": 5125,
      "count": 315603,
      "type": "SCALAR"
    },
    {
      "bufferView": 2,
      "byteOffset": 1572768,
      "componentType": 5126,
      "count": 9981,
      "max": [
        54.57445526123047,
        19.90935516357422,
        54.01947021484375
      ],
      "min": [
        -43.968849182128906,
        -6.2222700119018555,
        -2.9625091552734375
      ],
      "type": "VEC3"
    },
    {
      "bufferView": 2,
      "byteOffset": 1692540,
      "componentType": 5126,
      "count": 9981,
      "max": [
        0.9991672039031982,
        0.9999986886978149,
        0.9991672039031982
      ],
      "min": [
        -0.9990416169166565,
        -0.9999995827674866,
        -0.9981772899627686
      ],
      "type": "VEC3"
    },
    {
      "bufferView": 1,
      "byteOffset": 524256,
      "componentType": 5126,
      "count": 9981,
      "max": [
        1.6154370307922363,
        1.0
      ],
      "min": [
        -0.3945996165275574,
        8.940696716308594e-08
      ],
      "type": "VEC2"
    },
    {
      "bufferView": 0,
      "byteOffset": 1262412,
      "componentType": 5125,
      "count": 49467,
      "type": "SCALAR"
    }
  ],
  "asset": {
    "extras": {
      "author": "jbnotjeebe (https://sketchfab.com/jbnotjeebe)",
      "license": "CC-BY-4.0 (http://creativecommons.org/licenses/by/4.0/)",
      "source": "https://sketchfab.com/3d-models/dungeon-3-sample-room-d21cb1194265487fb69bc4319fedfded",
      "title": "Dungeon 3 Sample Room"
    },
    "generator": "Sketchfab-12.68.0",
    "version": "2.0"
  },
  "bufferViews": [
    {
      "buffer": 0,
      "byteLength": 1460280,
      "name": "floatBufferViews",
      "target": 34963
    },
    {
      "buffer": 0,
      "byteLength": 604104,
      "byteOffset": 1460280,
      "byteStride": 8,
      "name": "floatBufferViews",
      "target": 34962
    },
    {
      "buffer": 0,
      "byteLength": 1812312,
      "byteOffset": 2064384,
      "byteStride": 12,
      "name": "floatBufferViews",
      "target": 34962
    }
  ],
  "buffers": [
    {
      "byteLength": 3876696,
      "uri": "scene.bin"
    }
  ],
  "images": [
    {
      "uri": "textures/lambert2_baseColor.jpeg"
    }
  ],
  "materials": [
    {
      "doubleSided": true,
      "name": "lambert2",
      "pbrMetallicRoughness": {
        "baseColorTexture": {
          "index": 0
        },
        "metallicFactor": 0.0,
        "roughnessFactor": 0.6
      }
    }
  ],
  "meshes": [
    {
      "name": "polySurface311_lambert2_0",
      "primitives": [
        {
          "attributes": {
            "NORMAL": 1,
            "POSITION": 0,
            "TEXCOORD_0": 2
          },
          "indices": 3,
          "material": 0,
          "mode": 4
        }
      ]
    },
    {
      "name": "polySurface311_lambert2_0",
      "primitives": [
        {
          "attributes": {
            "NORMAL": 5,
            "POSITION": 4,
            "TEXCOORD_0": 6
          },
          "indices": 7,
          "material": 0,
          "mode": 4
        }
      ]
    }
  ],
  "nodes": [
    {
      "children": [
        1
      ],
      "matrix": [
        1.0,
        0.0,
        0.0,
        0.0,
        0.0,
        2.220446049250313e-16,
        -1.0,
        0.0,
        0.0,
        1.0,
        2.220446049250313e-16,
        0.0,
        0.0,
        0.0,
        0.0,
        1.0
      ],
      "name": "Sketchfab_model"
    },
    {
      "children": [
        2
      ],
      "matrix": [
        1.0,
        0.0,
        0.0,
        0.0,
        0.0,
        0.0,
        1.0,
        0.0,
        0.0,
        -1.0,
        0.0,
        0.0,
        0.0,
        0.0,
        0.0,
        1.0
      ],
      "name": "092c74477ad94836a74f75e9983297d5.fbx"
    },
    {
      "children": [
        3
      ],
      "name": "RootNode"
    },
    {
      "children": [
        4,
        5
      ],
      "name": "polySurface311"
    },
    {
      "mesh": 0,
      "name": "polySurface311_lambert2_0"
    },
    {
      "mesh": 1,
      "name": "polySurface311_lambert2_0"
    }
  ],
  "samplers": [
    {
      "magFilter": 9729,
      "minFilter": 9987,
      "wrapS": 10497,
      "wrapT": 10497
    }
  ],
  "scene": 0,
  "scenes": [
    {
      "name": "Sketchfab_Scene",
      "nodes": [
        0
      ]
    }
  ],
  "textures": [
    {
      "sampler": 0,
      "source": 0
    }
  ]
}
